<?xml version="1.0" standalone="no"?>
<!DOCTYPE svg PUBLIC "-//W3C//DTD SVG 20010904//EN"
 "http://www.w3.org/TR/2001/REC-SVG-20010904/DTD/svg10.dtd">
<svg version="1.0" xmlns="http://www.w3.org/2000/svg"
 width="4000.000000pt" height="4000.000000pt" viewBox="0 0 4000.000000 4000.000000"
 preserveAspectRatio="xMidYMid meet">
<metadata>
Created by potrace 1.16, written by Peter Selinger 2001-2019
</metadata>
<g transform="translate(0.000000,4000.000000) scale(0.100000,-0.100000)"
fill="#000000" stroke="none">
<path d="M28545 32274 c-29 -54 -108 -131 -225 -219 -146 -110 -206 -169 -337
-332 -223 -279 -286 -310 -698 -343 -224 -19 -340 -49 -492 -131 -51 -27 -135
-71 -186 -99 -181 -96 -263 -118 -572 -149 -202 -21 -313 -44 -389 -83 -22
-11 -97 -56 -166 -99 -263 -165 -374 -177 -810 -89 -109 22 -206 40 -216 40
-10 0 5 -16 38 -40 72 -51 138 -149 182 -270 56 -154 56 -151 -5 -91 -107 105
-187 131 -409 131 -330 0 -619 -84 -868 -252 -40 -27 -142 -105 -227 -173 -85
-68 -174 -137 -199 -155 -25 -17 -46 -33 -46 -35 0 -2 69 30 153 70 375 182
583 202 932 89 135 -44 612 -231 619 -243 2 -3 -63 -4 -144 -3 -125 3 -162 0
-230 -17 -212 -53 -493 -236 -820 -533 -363 -329 -423 -380 -551 -471 -36 -25
-103 -66 -150 -91 -46 -25 -75 -46 -64 -46 58 0 749 133 933 179 83 21 152 35
152 31 0 -4 -33 -19 -72 -35 -84 -32 -323 -161 -448 -242 -134 -88 -237 -172
-402 -331 -227 -218 -303 -261 -478 -269 -119 -6 -232 16 -473 92 -181 57
-315 95 -332 95 -5 0 15 -15 46 -34 31 -18 100 -66 153 -106 54 -39 139 -97
189 -128 51 -30 116 -70 146 -89 30 -18 48 -33 40 -34 -8 0 -46 -2 -84 -4 -39
-2 -83 -8 -98 -14 -68 -26 -172 -149 -346 -409 -172 -258 -307 -359 -609 -456
-135 -43 -495 -136 -528 -136 -37 0 -28 -17 13 -25 20 -4 114 -38 208 -75 245
-99 331 -123 440 -124 92 -1 111 4 179 49 29 19 29 18 -19 -75 -40 -78 -65
-111 -140 -186 l-91 -91 155 64 c86 35 217 88 291 117 74 30 257 105 405 169
411 175 622 247 825 281 122 20 426 38 465 28 25 -7 18 -10 -45 -16 -99 -9
-154 -36 -275 -137 -711 -592 -823 -674 -1080 -799 -213 -103 -360 -143 -601
-162 l-152 -12 47 -29 c25 -16 82 -56 126 -88 45 -32 97 -65 118 -74 46 -19
127 -19 174 0 46 19 53 19 24 -1 -43 -31 -179 -83 -257 -99 -42 -9 -165 -20
-273 -26 -197 -10 -408 -35 -576 -69 l-90 -18 85 -1 c123 -1 308 -25 519 -66
253 -49 332 -54 539 -39 169 13 254 24 320 43 17 5 32 8 32 6 0 -7 -254 -167
-349 -219 -136 -75 -242 -147 -469 -318 -227 -171 -339 -247 -457 -310 -58
-31 -79 -46 -60 -43 17 3 127 14 245 26 255 24 510 66 704 114 92 22 184 38
266 44 69 5 134 12 145 16 11 3 -16 -11 -60 -33 -98 -48 -176 -118 -251 -225
-86 -123 -126 -169 -208 -233 -41 -32 -74 -60 -73 -61 2 -1 52 14 112 33 235
74 418 91 640 59 55 -8 138 -15 185 -16 47 -1 99 -5 115 -8 26 -7 23 -8 -30
-15 -189 -23 -232 -48 -452 -258 -173 -166 -280 -250 -404 -317 -41 -22 -68
-41 -62 -41 7 0 99 18 205 40 371 78 461 91 653 97 180 6 672 -14 680 -27 3
-4 -19 -10 -48 -13 -96 -12 -360 -75 -467 -112 -167 -58 -378 -168 -775 -405
-539 -322 -748 -419 -1030 -475 -241 -48 -284 -50 -890 -47 -313 1 -687 -2
-830 -8 -570 -23 -856 -28 -1075 -20 -338 14 -492 37 -1045 155 -727 155
-1059 193 -1614 182 -416 -8 -616 -32 -1171 -142 -521 -103 -671 -120 -970
-110 -174 6 -216 5 -270 -9 -88 -22 -212 -83 -284 -140 -59 -45 -85 -58 -70
-33 5 6 32 47 61 90 29 42 56 89 59 104 13 51 -76 278 -187 479 -146 263 -303
471 -523 689 -334 333 -693 574 -1122 754 -729 305 -1605 396 -2352 245 -605
-123 -1180 -410 -1645 -822 -338 -301 -632 -722 -809 -1162 -108 -267 -167
-497 -237 -921 -17 -102 -40 -233 -50 -290 -97 -522 -212 -769 -500 -1072 -42
-44 -67 -77 -56 -73 11 5 63 23 116 41 116 40 263 114 386 195 67 44 112 84
171 152 44 51 92 104 108 118 l28 25 -23 -33 c-13 -18 -21 -36 -18 -39 3 -3
-12 -28 -33 -57 -36 -47 -62 -98 -229 -450 -109 -230 -207 -371 -419 -603
-109 -119 -113 -125 -57 -82 33 26 148 104 255 174 107 70 233 157 280 194
158 122 412 394 666 711 50 63 109 131 129 150 35 32 34 29 -19 -47 -98 -141
-146 -264 -236 -603 -68 -259 -111 -383 -176 -510 -91 -179 -226 -337 -387
-457 -82 -60 -51 -50 158 52 333 163 525 317 701 564 21 30 102 160 179 288
245 407 322 500 596 719 92 74 190 159 218 190 82 90 150 247 151 348 0 22 2
37 4 35 11 -10 66 -361 77 -482 25 -291 -17 -661 -106 -933 -198 -605 -668
-1021 -1508 -1333 -257 -95 -483 -157 -1044 -286 -180 -42 -402 -96 -493 -121
-537 -149 -826 -326 -1029 -629 -94 -141 -172 -303 -314 -650 -63 -154 -122
-298 -132 -320 -9 -22 -13 -35 -8 -30 5 6 43 51 85 100 107 127 325 337 443
426 266 199 566 341 814 384 85 15 281 18 381 7 l55 -7 -137 -47 c-258 -90
-405 -161 -580 -280 -398 -272 -873 -848 -1156 -1405 -218 -428 -359 -870
-457 -1431 -73 -421 -122 -584 -252 -847 -119 -239 -287 -444 -436 -529 -37
-21 -66 -41 -63 -43 2 -2 46 5 97 15 241 50 452 173 652 381 106 111 189 231
302 436 153 277 211 371 321 525 199 277 270 410 282 530 l7 74 38 -93 c84
-205 72 -404 -38 -640 -78 -169 -83 -209 -56 -452 25 -228 25 -261 6 -353 -26
-123 -90 -236 -205 -360 l-45 -49 53 29 c151 83 366 272 474 418 162 218 216
414 253 911 31 424 74 622 180 836 64 131 117 202 250 339 169 174 232 268
295 436 l29 79 1 -90 c0 -49 -7 -128 -15 -175 -36 -202 -19 -289 115 -591 43
-96 84 -194 91 -218 20 -67 25 -31 33 209 11 359 29 490 91 677 142 428 490
829 1020 1178 233 153 455 272 810 435 574 263 714 358 1235 834 455 416 588
513 982 717 354 184 444 242 645 420 200 178 407 421 693 814 689 949 1028
1320 1505 1650 84 58 78 50 -40 -48 -233 -194 -422 -441 -584 -766 -149 -296
-298 -759 -386 -1196 -62 -306 -69 -383 -70 -680 0 -236 3 -285 22 -390 27
-148 64 -277 133 -460 166 -447 190 -532 190 -680 0 -122 -26 -206 -96 -307
-115 -169 -394 -395 -675 -548 -282 -153 -546 -236 -840 -262 -110 -10 -159
-9 -337 6 -254 23 -412 19 -491 -12 -236 -92 -410 -350 -483 -714 -19 -96 -22
-143 -22 -318 1 -223 6 -261 93 -678 58 -279 75 -427 68 -597 -8 -181 -19
-243 -132 -694 -108 -433 -169 -709 -290 -1296 -171 -835 -264 -1238 -385
-1664 -72 -256 -92 -358 -92 -467 0 -179 68 -222 390 -244 407 -29 495 -44
592 -104 126 -78 165 -212 124 -427 -8 -45 -48 -197 -89 -338 -87 -304 -110
-427 -103 -555 8 -151 57 -245 172 -332 161 -122 410 -191 778 -215 352 -24
924 29 1267 116 142 36 261 79 261 95 0 4 -17 19 -38 33 -50 35 -130 133 -302
367 -193 262 -284 374 -415 509 -133 137 -200 193 -465 391 -338 253 -452 361
-576 546 -451 676 -465 1851 -40 3319 228 788 540 1386 929 1778 267 268 565
444 983 580 386 126 823 206 1824 332 900 114 1131 186 1601 496 258 170 352
219 423 219 129 0 204 -128 194 -332 -4 -87 -9 -106 -41 -171 -85 -172 -237
-276 -747 -507 -474 -215 -674 -332 -820 -479 -114 -114 -135 -158 -135 -276
0 -86 2 -93 40 -165 117 -219 491 -497 915 -679 345 -147 643 -234 1480 -431
807 -189 1162 -298 1427 -435 139 -72 235 -137 322 -220 146 -138 205 -236
292 -481 113 -319 130 -329 380 -216 247 112 391 146 609 146 119 0 160 -4
229 -22 240 -65 385 -197 446 -407 13 -44 16 -83 13 -159 -5 -107 -18 -147
-134 -406 -28 -63 -39 -102 -42 -150 -3 -59 -1 -69 28 -112 58 -87 137 -143
505 -355 143 -83 305 -177 360 -210 55 -33 261 -158 458 -276 197 -119 382
-225 413 -236 71 -27 133 -27 167 -1 14 11 36 46 48 78 21 51 23 75 24 217 0
179 -13 260 -70 432 -73 219 -154 347 -346 550 -77 82 -158 174 -179 206 -89
133 -104 243 -75 544 16 154 17 196 7 260 -28 178 -141 321 -391 492 -192 131
-409 235 -811 388 -554 210 -1000 401 -1690 723 -604 282 -1094 481 -1720 700
-270 95 -290 104 -290 129 0 42 20 45 203 33 233 -16 534 -15 697 3 645 71
1207 320 1510 669 137 159 211 303 355 701 164 452 251 585 436 669 100 45
203 59 398 53 308 -9 530 -57 1456 -314 951 -263 1488 -377 2035 -430 218 -21
761 -24 960 -5 556 54 1068 177 1529 369 280 116 404 138 539 92 101 -34 174
-90 376 -287 315 -308 400 -353 914 -478 372 -90 470 -125 837 -304 283 -138
388 -184 514 -224 267 -86 474 -101 965 -70 297 19 359 14 408 -33 23 -22 28
-35 28 -77 0 -66 -32 -134 -140 -296 -192 -289 -254 -511 -280 -1001 -17 -319
7 -502 72 -538 24 -14 32 -13 82 2 53 17 119 59 466 298 172 118 359 213 605
307 99 38 239 95 312 126 161 69 278 101 346 93 98 -12 146 -45 331 -226 95
-93 200 -187 235 -209 126 -82 259 -123 596 -186 328 -62 505 -113 726 -211
396 -175 873 -523 1234 -897 336 -349 579 -719 859 -1308 174 -366 306 -627
336 -662 17 -21 40 -38 51 -38 31 0 73 53 167 209 99 165 137 211 176 211 54
0 77 -40 175 -314 176 -489 303 -731 485 -923 132 -139 256 -215 441 -268 212
-61 343 -72 970 -86 719 -15 933 -6 992 43 69 57 -149 296 -587 647 -305 243
-358 302 -562 619 -159 246 -240 353 -362 476 -230 231 -532 442 -1111 776
-572 330 -793 472 -1029 663 -226 183 -375 347 -647 709 -309 411 -404 514
-729 788 -253 213 -377 334 -570 555 -344 394 -459 470 -950 634 -220 73 -278
102 -302 151 -26 52 -10 98 56 163 28 29 194 160 367 291 775 591 1145 901
1524 1281 529 529 804 951 881 1352 24 126 22 324 -5 426 -74 283 -251 412
-729 531 -269 68 -550 118 -827 148 -161 17 -731 17 -890 0 -325 -36 -587 -98
-960 -227 -490 -169 -660 -189 -903 -106 -117 41 -185 84 -282 181 -136 136
-183 257 -201 520 -52 771 -134 1251 -304 1780 -114 353 -226 606 -561 1269
-280 553 -373 747 -471 981 -428 1027 -598 2137 -412 2694 41 123 83 199 151
271 154 166 372 189 701 75 288 -99 561 -240 1242 -640 476 -279 867 -455
1205 -540 285 -72 479 -56 558 47 15 20 46 59 68 88 l42 52 -57 23 c-158 64
-474 258 -776 478 -71 52 -134 98 -138 102 -4 4 56 -15 135 -41 79 -27 215
-66 303 -88 579 -144 953 -125 1106 58 47 56 105 185 138 306 55 206 121 515
121 571 0 48 -4 60 -28 84 -35 34 -74 46 -229 65 -155 20 -264 48 -341 87
-112 56 -270 194 -592 517 -403 403 -450 442 -791 641 -209 123 -305 192 -360
263 -80 101 -94 166 -78 367 9 123 9 156 -4 217 -33 151 -140 317 -319 488
-124 121 -236 205 -398 304 -66 40 -119 75 -117 78 3 2 60 -18 128 -46 278
-110 336 -116 562 -57 152 40 236 45 327 22 30 -8 56 -13 58 -11 4 4 -117 71
-174 96 -27 12 -124 49 -215 84 -254 96 -317 134 -351 213 -37 83 -7 165 137
367 141 199 171 291 145 439 l-13 70 -16 -64 c-9 -36 -29 -86 -44 -112 -69
-119 -286 -357 -392 -433 -132 -94 -196 -110 -388 -99 l-132 7 48 16 c65 22
115 65 141 120 19 41 21 63 20 206 0 88 -6 196 -13 240 -16 102 -60 293 -70
299 -4 3 -13 -12 -21 -32 -47 -132 -212 -266 -410 -333 -86 -29 -109 -32 -245
-36 -90 -3 -216 1 -315 10 -166 15 -236 12 -348 -13 -29 -7 -56 -9 -60 -6 -3
4 31 41 75 84 111 105 156 203 188 407 15 95 31 285 24 285 -3 0 -13 -16 -24
-36z m4430 -14218 c45 -19 69 -66 61 -118 -13 -83 -101 -227 -292 -483 -133
-177 -640 -828 -713 -915 -133 -159 -257 -268 -372 -326 -222 -111 -497 -78
-837 101 -207 110 -381 243 -593 454 -217 216 -251 270 -196 305 33 21 544
239 844 360 622 250 1178 444 1618 565 250 68 407 87 480 57z"/>
</g>
</svg>
